<svg width="32" height="26" viewBox="0 0 32 26" fill="none" xmlns="http://www.w3.org/2000/svg">
<path d="M24.56 25.36C22.32 25.36 20.5333 24.5867 19.2 23.04C17.8667 21.44 17.2 19.28 17.2 16.56C17.2 13.1467 18.2933 10.0267 20.48 7.2C22.6667 4.37333 26.3467 2.26666 31.52 0.879996V5.04C29.9733 5.57333 28.6667 6.13333 27.6 6.72C26.5867 7.25333 25.8133 7.89333 25.28 8.64C24.7467 9.33333 24.48 10.2133 24.48 11.28C24.48 11.8667 24.6667 12.3467 25.04 12.72C25.4667 13.0933 25.9733 13.44 26.56 13.76C27.1467 14.08 27.7067 14.48 28.24 14.96C28.8267 15.3867 29.3067 16 29.68 16.8C30.1067 17.5467 30.32 18.56 30.32 19.84C30.32 21.6533 29.76 23.04 28.64 24C27.5733 24.9067 26.2133 25.36 24.56 25.36ZM7.84 25.36C5.6 25.36 3.81333 24.5867 2.48 23.04C1.14667 21.44 0.48 19.28 0.48 16.56C0.48 13.1467 1.57333 10.0267 3.76 7.2C5.94667 4.37333 9.62667 2.26666 14.8 0.879996V5.04C13.2533 5.57333 11.9467 6.13333 10.88 6.72C9.86667 7.25333 9.09333 7.89333 8.56 8.64C8.02667 9.33333 7.76 10.2133 7.76 11.28C7.76 11.8667 7.94667 12.3467 8.32 12.72C8.74667 13.0933 9.22667 13.44 9.76 13.76C10.3467 14.08 10.9333 14.48 11.52 14.96C12.1067 15.3867 12.5867 16 12.96 16.8C13.3867 17.5467 13.6 18.56 13.6 19.84C13.6 21.6533 13.04 23.04 11.92 24C10.8533 24.9067 9.49333 25.36 7.84 25.36Z" fill="white"/>
</svg>
